<svg width="1500" height="611" viewBox="0 0 1500 611" fill="none" xmlns="http://www.w3.org/2000/svg"> <rect x="103" y="405" width="209" height="200" fill="#D9F7FF"/> <circle cx="207.5" cy="404.5" r="104.5" fill="url(#paint0_linear_7_38)"/> <circle cx="207.5" cy="404.5" r="54.5" fill="url(#paint1_linear_7_38)"/> <rect x="320" y="405" width="209" height="200" fill="#FFF7A5"/> <circle cx="424.5" cy="404.5" r="104.5" fill="url(#paint2_linear_7_38)"/> <circle cx="424.5" cy="404.5" r="54.5" fill="url(#paint3_linear_7_38)"/> <rect x="537" y="305" width="209" height="300" fill="#83EEE8"/> <circle cx="641.5" cy="304.5" r="104.5" fill="url(#paint4_linear_7_38)"/> <circle cx="641.5" cy="304.5" r="54.5" fill="url(#paint5_linear_7_38)"/> <rect x="754" y="255" width="209" height="350" fill="#96E9FF"/> <circle cx="858.5" cy="254.5" r="104.5" transform="rotate(-180 858.5 254.5)" fill="url(#paint6_linear_7_38)"/> <circle cx="858.5" cy="254.5" r="54.5" transform="rotate(-180 858.5 254.5)" fill="url(#paint7_linear_7_38)"/> <rect x="971" y="155" width="209" height="450" fill="#FFC38B"/> <circle cx="1075.5" cy="154.5" r="104.5" fill="url(#paint8_linear_7_38)"/> <circle cx="1075.5" cy="154.5" r="54.5" fill="url(#paint9_linear_7_38)"/> <rect x="1188" y="105" width="209" height="500" fill="#E2E0FF"/> <circle cx="1292.5" cy="104.5" r="104.5" fill="url(#paint10_linear_7_38)"/> <circle cx="1292.5" cy="104.5" r="54.5" fill="url(#paint11_linear_7_38)"/> <rect y="605" width="1500" height="6" rx="3" fill="url(#paint12_linear_7_38)"/> <defs> <linearGradient id="paint0_linear_7_38" x1="103" y1="404.5" x2="312" y2="404.5" gradientUnits="userSpaceOnUse"> <stop offset="0.5" stop-color="#A7E9FD"/> <stop offset="0.5" stop-color="#39D1F9"/> </linearGradient> <linearGradient id="paint1_linear_7_38" x1="262" y1="404.5" x2="153" y2="404.5" gradientUnits="userSpaceOnUse"> <stop offset="0.5" stop-color="#A7E9FD"/> <stop offset="0.5" stop-color="#39D1F9"/> </linearGradient> <linearGradient id="paint2_linear_7_38" x1="320" y1="404.5" x2="529" y2="404.5" gradientUnits="userSpaceOnUse"> <stop offset="0.5" stop-color="#FFD400"/> <stop offset="0.5" stop-color="#FFB400"/> </linearGradient> <linearGradient id="paint3_linear_7_38" x1="479" y1="404.5" x2="370" y2="404.5" gradientUnits="userSpaceOnUse"> <stop offset="0.5" stop-color="#FFD400"/> <stop offset="0.5" stop-color="#FFB400"/> </linearGradient> <linearGradient id="paint4_linear_7_38" x1="537" y1="304.5" x2="746" y2="304.5" gradientUnits="userSpaceOnUse"> <stop offset="0.5" stop-color="#39BEB7"/> <stop offset="0.5" stop-color="#00827B"/> </linearGradient> <linearGradient id="paint5_linear_7_38" x1="696" y1="304.5" x2="587" y2="304.5" gradientUnits="userSpaceOnUse"> <stop offset="0.5" stop-color="#39BEB7"/> <stop offset="0.5" stop-color="#00827B"/> </linearGradient> <linearGradient id="paint6_linear_7_38" x1="754" y1="254.5" x2="963" y2="254.5" gradientUnits="userSpaceOnUse"> <stop offset="0.5" stop-color="#008AFF"/> <stop offset="0.5" stop-color="#00AEFF"/> </linearGradient> <linearGradient id="paint7_linear_7_38" x1="913" y1="254.5" x2="804" y2="254.5" gradientUnits="userSpaceOnUse"> <stop offset="0.5" stop-color="#008AFF"/> <stop offset="0.5" stop-color="#00AEFF"/> </linearGradient> <linearGradient id="paint8_linear_7_38" x1="971" y1="154.5" x2="1180" y2="154.5" gradientUnits="userSpaceOnUse"> <stop offset="0.5" stop-color="#FF8130"/> <stop offset="0.5" stop-color="#FF3200"/> </linearGradient> <linearGradient id="paint9_linear_7_38" x1="1130" y1="154.5" x2="1021" y2="154.5" gradientUnits="userSpaceOnUse"> <stop offset="0.5" stop-color="#FF8130"/> <stop offset="0.5" stop-color="#FF3200"/> </linearGradient> <linearGradient id="paint10_linear_7_38" x1="1188" y1="104.5" x2="1397" y2="104.5" gradientUnits="userSpaceOnUse"> <stop offset="0.5" stop-color="#BDBBFF"/> <stop offset="0.5" stop-color="#9896FF"/> </linearGradient> <linearGradient id="paint11_linear_7_38" x1="1347" y1="104.5" x2="1238" y2="104.5" gradientUnits="userSpaceOnUse"> <stop offset="0.5" stop-color="#BDBBFF"/> <stop offset="0.5" stop-color="#9896FF"/> </linearGradient> <linearGradient id="paint12_linear_7_38" x1="0" y1="608" x2="1500" y2="608" gradientUnits="userSpaceOnUse"> <stop stop-color="#39D1F9"/> <stop offset="0.2" stop-color="#FFB400"/> <stop offset="0.4" stop-color="#00827B"/> <stop offset="0.6" stop-color="#008AFF"/> <stop offset="0.8" stop-color="#FF3200"/> <stop offset="1" stop-color="#9896FF"/> </linearGradient> </defs> </svg>