<svg width="504" height="249" viewBox="0 0 504 249" fill="none" xmlns="http://www.w3.org/2000/svg">
<g clip-path="url(#clip0_29_232)">
<rect width="504" height="249" rx="20" fill="#FAFAFA"/>
<path d="M37.3011 29.5455V47H34.6591V32.1875H34.5568L30.3807 34.9148V32.392L34.7358 29.5455H37.3011ZM48.0994 47.2898C46.7528 47.2841 45.6023 46.929 44.6477 46.2244C43.6932 45.5199 42.9631 44.4943 42.4574 43.1477C41.9517 41.8011 41.6989 40.179 41.6989 38.2812C41.6989 36.3892 41.9517 34.7727 42.4574 33.4318C42.9688 32.0909 43.7017 31.0682 44.6562 30.3636C45.6165 29.6591 46.7642 29.3068 48.0994 29.3068C49.4347 29.3068 50.5795 29.6619 51.5341 30.3722C52.4886 31.0767 53.2188 32.0994 53.7244 33.4403C54.2358 34.7756 54.4915 36.3892 54.4915 38.2812C54.4915 40.1847 54.2386 41.8097 53.733 43.1562C53.2273 44.4972 52.4972 45.5227 51.5426 46.233C50.5881 46.9375 49.4403 47.2898 48.0994 47.2898ZM48.0994 45.0142C49.2813 45.0142 50.2045 44.4375 50.8693 43.2841C51.5398 42.1307 51.875 40.4631 51.875 38.2812C51.875 36.8324 51.7216 35.608 51.4148 34.608C51.1136 33.6023 50.679 32.8409 50.1108 32.3239C49.5483 31.8011 48.8778 31.5398 48.0994 31.5398C46.9233 31.5398 46 32.1193 45.3295 33.2784C44.6591 34.4375 44.321 36.1051 44.3153 38.2812C44.3153 39.7358 44.4659 40.9659 44.767 41.9716C45.0739 42.9716 45.5085 43.7301 46.071 44.2472C46.6335 44.7585 47.3097 45.0142 48.0994 45.0142ZM64.1371 29.5455V47H61.495V32.1875H61.3928L57.2166 34.9148V32.392L61.5717 29.5455H64.1371ZM77.9695 43.7273V42.8068C77.9695 42.1477 78.1058 41.5455 78.3786 41C78.657 40.4489 79.0604 40.0085 79.5888 39.679C80.1229 39.3437 80.7678 39.1761 81.5234 39.1761C82.2962 39.1761 82.9439 39.3409 83.4666 39.6705C83.9893 40 84.3842 40.4403 84.6513 40.9915C84.924 41.5426 85.0604 42.1477 85.0604 42.8068V43.7273C85.0604 44.3864 84.924 44.9915 84.6513 45.5426C84.3786 46.0881 83.978 46.5284 83.4496 46.8636C82.9268 47.1932 82.2848 47.358 81.5234 47.358C80.7564 47.358 80.1087 47.1932 79.5803 46.8636C79.0518 46.5284 78.6513 46.0881 78.3786 45.5426C78.1058 44.9915 77.9695 44.3864 77.9695 43.7273ZM79.9553 42.8068V43.7273C79.9553 44.2159 80.0717 44.6591 80.3047 45.0568C80.5376 45.4545 80.9439 45.6534 81.5234 45.6534C82.0973 45.6534 82.4979 45.4545 82.7251 45.0568C82.9524 44.6591 83.0661 44.2159 83.0661 43.7273V42.8068C83.0661 42.3182 82.9553 41.875 82.7337 41.4773C82.5178 41.0795 82.1143 40.8807 81.5234 40.8807C80.9553 40.8807 80.5518 41.0795 80.3132 41.4773C80.0746 41.875 79.9553 42.3182 79.9553 42.8068ZM69.1911 33.7386V32.8182C69.1911 32.1591 69.3274 31.554 69.6001 31.0028C69.8786 30.4517 70.282 30.0114 70.8104 29.6818C71.3445 29.3523 71.9893 29.1875 72.745 29.1875C73.5178 29.1875 74.1655 29.3523 74.6882 29.6818C75.2109 30.0114 75.6058 30.4517 75.8729 31.0028C76.1399 31.554 76.2734 32.1591 76.2734 32.8182V33.7386C76.2734 34.3977 76.1371 35.0028 75.8643 35.554C75.5973 36.0994 75.1996 36.5398 74.6712 36.875C74.1484 37.2045 73.5064 37.3693 72.745 37.3693C71.9723 37.3693 71.3217 37.2045 70.7933 36.875C70.2706 36.5398 69.8729 36.0994 69.6001 35.554C69.3274 35.0028 69.1911 34.3977 69.1911 33.7386ZM71.1854 32.8182V33.7386C71.1854 34.2273 71.299 34.6705 71.5263 35.0682C71.7592 35.4659 72.1655 35.6648 72.745 35.6648C73.3132 35.6648 73.7109 35.4659 73.9382 35.0682C74.1712 34.6705 74.2876 34.2273 74.2876 33.7386V32.8182C74.2876 32.3295 74.1768 31.8864 73.9553 31.4886C73.7337 31.0909 73.3303 30.892 72.745 30.892C72.1768 30.892 71.7734 31.0909 71.5348 31.4886C71.3018 31.8864 71.1854 32.3295 71.1854 32.8182ZM70.0007 47L82.0007 29.5455H84.0376L72.0376 47H70.0007Z" fill="black"/>
<path d="M30.7614 72V57.4545H35.8466C36.8598 57.4545 37.6955 57.6297 38.3537 57.9801C39.0118 58.3258 39.5019 58.7921 39.8239 59.3793C40.1458 59.9616 40.3068 60.608 40.3068 61.3182C40.3068 61.9432 40.1955 62.4593 39.973 62.8665C39.7552 63.2737 39.4664 63.5956 39.1065 63.8324C38.7514 64.0691 38.3655 64.2443 37.9489 64.358V64.5C38.3939 64.5284 38.8414 64.6847 39.2912 64.9688C39.741 65.2528 40.1174 65.66 40.4205 66.1903C40.7235 66.7206 40.875 67.3693 40.875 68.1364C40.875 68.8655 40.7093 69.5213 40.3778 70.1037C40.0464 70.6861 39.5232 71.1477 38.8082 71.4886C38.0933 71.8295 37.1629 72 36.017 72H30.7614ZM32.5227 70.4375H36.017C37.1676 70.4375 37.9844 70.215 38.4673 69.7699C38.955 69.3201 39.1989 68.7756 39.1989 68.1364C39.1989 67.6439 39.0734 67.1894 38.8224 66.7727C38.5715 66.3513 38.214 66.0152 37.75 65.7642C37.286 65.5085 36.7367 65.3807 36.1023 65.3807H32.5227V70.4375ZM32.5227 63.8466H35.7898C36.3201 63.8466 36.7983 63.7424 37.2244 63.5341C37.6553 63.3258 37.9962 63.0322 38.2472 62.6534C38.5028 62.2746 38.6307 61.8295 38.6307 61.3182C38.6307 60.679 38.4081 60.1368 37.9631 59.6918C37.518 59.242 36.8125 59.017 35.8466 59.017H32.5227V63.8466ZM47.9737 72.2273C46.9889 72.2273 46.1248 71.9929 45.3814 71.5241C44.6428 71.0554 44.0651 70.3996 43.6484 69.5568C43.2365 68.714 43.0305 67.7292 43.0305 66.6023C43.0305 65.4659 43.2365 64.474 43.6484 63.6264C44.0651 62.7789 44.6428 62.1207 45.3814 61.652C46.1248 61.1832 46.9889 60.9489 47.9737 60.9489C48.9586 60.9489 49.8203 61.1832 50.5589 61.652C51.3023 62.1207 51.88 62.7789 52.2919 63.6264C52.7086 64.474 52.9169 65.4659 52.9169 66.6023C52.9169 67.7292 52.7086 68.714 52.2919 69.5568C51.88 70.3996 51.3023 71.0554 50.5589 71.5241C49.8203 71.9929 48.9586 72.2273 47.9737 72.2273ZM47.9737 70.7216C48.7218 70.7216 49.3374 70.5298 49.8203 70.1463C50.3033 69.7628 50.6607 69.2585 50.8928 68.6335C51.1248 68.0085 51.2408 67.3314 51.2408 66.6023C51.2408 65.8731 51.1248 65.1937 50.8928 64.5639C50.6607 63.9342 50.3033 63.4252 49.8203 63.0369C49.3374 62.6487 48.7218 62.4545 47.9737 62.4545C47.2256 62.4545 46.6101 62.6487 46.1271 63.0369C45.6442 63.4252 45.2867 63.9342 45.0547 64.5639C44.8227 65.1937 44.7067 65.8731 44.7067 66.6023C44.7067 67.3314 44.8227 68.0085 45.0547 68.6335C45.2867 69.2585 45.6442 69.7628 46.1271 70.1463C46.6101 70.5298 47.2256 70.7216 47.9737 70.7216ZM59.9073 72.2273C58.9225 72.2273 58.0584 71.9929 57.315 71.5241C56.5763 71.0554 55.9987 70.3996 55.582 69.5568C55.1701 68.714 54.9641 67.7292 54.9641 66.6023C54.9641 65.4659 55.1701 64.474 55.582 63.6264C55.9987 62.7789 56.5763 62.1207 57.315 61.652C58.0584 61.1832 58.9225 60.9489 59.9073 60.9489C60.8922 60.9489 61.7539 61.1832 62.4925 61.652C63.2359 62.1207 63.8136 62.7789 64.2255 63.6264C64.6422 64.474 64.8505 65.4659 64.8505 66.6023C64.8505 67.7292 64.6422 68.714 64.2255 69.5568C63.8136 70.3996 63.2359 71.0554 62.4925 71.5241C61.7539 71.9929 60.8922 72.2273 59.9073 72.2273ZM59.9073 70.7216C60.6554 70.7216 61.271 70.5298 61.7539 70.1463C62.2369 69.7628 62.5943 69.2585 62.8263 68.6335C63.0584 68.0085 63.1744 67.3314 63.1744 66.6023C63.1744 65.8731 63.0584 65.1937 62.8263 64.5639C62.5943 63.9342 62.2369 63.4252 61.7539 63.0369C61.271 62.6487 60.6554 62.4545 59.9073 62.4545C59.1592 62.4545 58.5437 62.6487 58.0607 63.0369C57.5778 63.4252 57.2203 63.9342 56.9883 64.5639C56.7563 65.1937 56.6403 65.8731 56.6403 66.6023C56.6403 67.3314 56.7563 68.0085 56.9883 68.6335C57.2203 69.2585 57.5778 69.7628 58.0607 70.1463C58.5437 70.5298 59.1592 70.7216 59.9073 70.7216ZM75.1364 63.5341L73.6307 63.9602C73.536 63.7093 73.3963 63.4654 73.2116 63.2287C73.0317 62.9872 72.7855 62.7884 72.473 62.6321C72.1605 62.4759 71.7604 62.3977 71.2727 62.3977C70.6051 62.3977 70.0488 62.5516 69.6037 62.8594C69.1634 63.1624 68.9432 63.5483 68.9432 64.017C68.9432 64.4337 69.0947 64.7628 69.3977 65.0043C69.7008 65.2457 70.1742 65.447 70.8182 65.608L72.4375 66.0057C73.4129 66.2424 74.1397 66.6046 74.6179 67.0923C75.0961 67.5753 75.3352 68.1979 75.3352 68.9602C75.3352 69.5852 75.1553 70.1439 74.7955 70.6364C74.4403 71.1288 73.9432 71.517 73.304 71.8011C72.6648 72.0852 71.9214 72.2273 71.0739 72.2273C69.9612 72.2273 69.0402 71.9858 68.3111 71.5028C67.5819 71.0199 67.1203 70.3144 66.9261 69.3864L68.517 68.9886C68.6686 69.5758 68.955 70.0161 69.3764 70.3097C69.8026 70.6032 70.3589 70.75 71.0455 70.75C71.8267 70.75 72.447 70.5843 72.9062 70.2528C73.3703 69.9167 73.6023 69.5142 73.6023 69.0455C73.6023 68.6667 73.4697 68.3494 73.2045 68.0938C72.9394 67.8333 72.5322 67.6392 71.983 67.5114L70.1648 67.0852C69.1657 66.8485 68.4318 66.4815 67.9631 65.9844C67.4991 65.4825 67.267 64.8551 67.267 64.1023C67.267 63.4867 67.4399 62.9422 67.7855 62.4688C68.1359 61.9953 68.6117 61.6236 69.2131 61.3537C69.8191 61.0838 70.5057 60.9489 71.2727 60.9489C72.3523 60.9489 73.1998 61.1856 73.8153 61.6591C74.4356 62.1326 74.8759 62.7576 75.1364 63.5341ZM82.6026 61.0909V62.5114H76.9492V61.0909H82.6026ZM78.5969 58.4773H80.2731V68.875C80.2731 69.3485 80.3417 69.7036 80.479 69.9403C80.6211 70.1723 80.801 70.3286 81.0188 70.4091C81.2414 70.4848 81.4757 70.5227 81.7219 70.5227C81.9066 70.5227 82.0581 70.5133 82.1765 70.4943C82.2949 70.4706 82.3896 70.4517 82.4606 70.4375L82.8015 71.9432C82.6879 71.9858 82.5292 72.0284 82.3256 72.071C82.122 72.1184 81.864 72.142 81.5515 72.142C81.078 72.142 80.614 72.0402 80.1594 71.8366C79.7096 71.633 79.3356 71.3229 79.0373 70.9062C78.7437 70.4896 78.5969 69.964 78.5969 69.3295V58.4773ZM90.7489 72V61.0909H92.4251V72H90.7489ZM91.6012 59.2727C91.2745 59.2727 90.9928 59.1615 90.756 58.9389C90.524 58.7164 90.408 58.4489 90.408 58.1364C90.408 57.8239 90.524 57.5563 90.756 57.3338C90.9928 57.1113 91.2745 57 91.6012 57C91.9279 57 92.2073 57.1113 92.4393 57.3338C92.676 57.5563 92.7944 57.8239 92.7944 58.1364C92.7944 58.4489 92.676 58.7164 92.4393 58.9389C92.2073 59.1615 91.9279 59.2727 91.6012 59.2727ZM97.1712 65.4375V72H95.495V61.0909H97.1143V62.7955H97.2564C97.5121 62.2415 97.9003 61.7964 98.4212 61.4602C98.942 61.1193 99.6143 60.9489 100.438 60.9489C101.177 60.9489 101.823 61.1004 102.377 61.4034C102.931 61.7017 103.362 62.1562 103.67 62.767C103.978 63.3731 104.131 64.1402 104.131 65.0682V72H102.455V65.1818C102.455 64.3248 102.233 63.6572 101.788 63.179C101.343 62.696 100.732 62.4545 99.9553 62.4545C99.4202 62.4545 98.942 62.5705 98.5206 62.8026C98.1039 63.0346 97.7749 63.3731 97.5334 63.8182C97.2919 64.2633 97.1712 64.803 97.1712 65.4375ZM112.819 76.0909V61.0909H114.439V62.8239H114.637C114.761 62.6345 114.931 62.393 115.149 62.0994C115.371 61.8011 115.689 61.536 116.1 61.304C116.517 61.0672 117.081 60.9489 117.791 60.9489C118.709 60.9489 119.519 61.1785 120.22 61.6378C120.921 62.0971 121.467 62.7481 121.86 63.5909C122.253 64.4337 122.45 65.428 122.45 66.5739C122.45 67.7292 122.253 68.7306 121.86 69.5781C121.467 70.4209 120.923 71.0743 120.227 71.5384C119.531 71.9976 118.728 72.2273 117.819 72.2273C117.118 72.2273 116.557 72.1113 116.136 71.8793C115.715 71.6425 115.39 71.375 115.163 71.0767C114.936 70.7737 114.761 70.5227 114.637 70.3239H114.495V76.0909H112.819ZM114.467 66.5455C114.467 67.3693 114.588 68.0961 114.829 68.7259C115.071 69.3509 115.423 69.8409 115.887 70.196C116.351 70.5464 116.92 70.7216 117.592 70.7216C118.293 70.7216 118.877 70.5369 119.346 70.1676C119.82 69.7936 120.175 69.2917 120.412 68.6619C120.653 68.0275 120.774 67.322 120.774 66.5455C120.774 65.7784 120.655 65.0871 120.419 64.4716C120.187 63.8513 119.834 63.3613 119.36 63.0014C118.892 62.6368 118.302 62.4545 117.592 62.4545C116.91 62.4545 116.337 62.6274 115.873 62.973C115.409 63.3139 115.059 63.7921 114.822 64.4077C114.585 65.0185 114.467 65.7311 114.467 66.5455ZM125.696 76.0909C125.412 76.0909 125.158 76.0672 124.936 76.0199C124.713 75.9773 124.559 75.9347 124.474 75.892L124.9 74.4148C125.307 74.5189 125.667 74.5568 125.98 74.5284C126.292 74.5 126.569 74.3603 126.811 74.1094C127.057 73.8632 127.282 73.4631 127.485 72.9091L127.798 72.0568L123.764 61.0909H125.582L128.593 69.7841H128.707L131.718 61.0909H133.537L128.906 73.5909C128.698 74.1544 128.44 74.6207 128.132 74.9901C127.824 75.3641 127.467 75.6411 127.059 75.821C126.657 76.0009 126.202 76.0909 125.696 76.0909ZM140.493 61.0909V62.5114H134.84V61.0909H140.493ZM136.488 58.4773H138.164V68.875C138.164 69.3485 138.232 69.7036 138.37 69.9403C138.512 70.1723 138.692 70.3286 138.909 70.4091C139.132 70.4848 139.366 70.5227 139.613 70.5227C139.797 70.5227 139.949 70.5133 140.067 70.4943C140.185 70.4706 140.28 70.4517 140.351 70.4375L140.692 71.9432C140.578 71.9858 140.42 72.0284 140.216 72.071C140.013 72.1184 139.755 72.142 139.442 72.142C138.969 72.142 138.505 72.0402 138.05 71.8366C137.6 71.633 137.226 71.3229 136.928 70.9062C136.634 70.4896 136.488 69.964 136.488 69.3295V58.4773ZM144.925 65.4375V72H143.249V57.4545H144.925V62.7955H145.067C145.323 62.232 145.706 61.7846 146.218 61.4531C146.734 61.117 147.42 60.9489 148.277 60.9489C149.021 60.9489 149.672 61.098 150.23 61.3963C150.789 61.6899 151.222 62.142 151.53 62.7528C151.843 63.3589 151.999 64.1307 151.999 65.0682V72H150.323V65.1818C150.323 64.3153 150.098 63.6454 149.648 63.1719C149.203 62.6937 148.585 62.4545 147.794 62.4545C147.245 62.4545 146.753 62.5705 146.317 62.8026C145.886 63.0346 145.545 63.3731 145.294 63.8182C145.048 64.2633 144.925 64.803 144.925 65.4375ZM159.497 72.2273C158.512 72.2273 157.648 71.9929 156.905 71.5241C156.166 71.0554 155.589 70.3996 155.172 69.5568C154.76 68.714 154.554 67.7292 154.554 66.6023C154.554 65.4659 154.76 64.474 155.172 63.6264C155.589 62.7789 156.166 62.1207 156.905 61.652C157.648 61.1832 158.512 60.9489 159.497 60.9489C160.482 60.9489 161.344 61.1832 162.082 61.652C162.826 62.1207 163.403 62.7789 163.815 63.6264C164.232 64.474 164.44 65.4659 164.44 66.6023C164.44 67.7292 164.232 68.714 163.815 69.5568C163.403 70.3996 162.826 71.0554 162.082 71.5241C161.344 71.9929 160.482 72.2273 159.497 72.2273ZM159.497 70.7216C160.245 70.7216 160.861 70.5298 161.344 70.1463C161.827 69.7628 162.184 69.2585 162.416 68.6335C162.648 68.0085 162.764 67.3314 162.764 66.6023C162.764 65.8731 162.648 65.1937 162.416 64.5639C162.184 63.9342 161.827 63.4252 161.344 63.0369C160.861 62.6487 160.245 62.4545 159.497 62.4545C158.749 62.4545 158.134 62.6487 157.651 63.0369C157.168 63.4252 156.81 63.9342 156.578 64.5639C156.346 65.1937 156.23 65.8731 156.23 66.6023C156.23 67.3314 156.346 68.0085 156.578 68.6335C156.81 69.2585 157.168 69.7628 157.651 70.1463C158.134 70.5298 158.749 70.7216 159.497 70.7216ZM168.675 65.4375V72H166.999V61.0909H168.618V62.7955H168.76C169.016 62.2415 169.404 61.7964 169.925 61.4602C170.446 61.1193 171.118 60.9489 171.942 60.9489C172.681 60.9489 173.327 61.1004 173.881 61.4034C174.435 61.7017 174.866 62.1562 175.174 62.767C175.481 63.3731 175.635 64.1402 175.635 65.0682V72H173.959V65.1818C173.959 64.3248 173.737 63.6572 173.292 63.179C172.846 62.696 172.236 62.4545 171.459 62.4545C170.924 62.4545 170.446 62.5705 170.025 62.8026C169.608 63.0346 169.279 63.3731 169.037 63.8182C168.796 64.2633 168.675 64.803 168.675 65.4375ZM188.727 76.3182C187.917 76.3182 187.221 76.214 186.638 76.0057C186.056 75.8021 185.571 75.5322 185.183 75.196C184.799 74.8646 184.494 74.5095 184.266 74.1307L185.602 73.1932C185.753 73.392 185.945 73.6193 186.177 73.875C186.409 74.1354 186.726 74.3603 187.129 74.5497C187.536 74.7438 188.068 74.8409 188.727 74.8409C189.607 74.8409 190.334 74.6278 190.907 74.2017C191.48 73.7756 191.766 73.108 191.766 72.1989V69.983H191.624C191.501 70.1818 191.326 70.428 191.099 70.7216C190.876 71.0104 190.554 71.2685 190.133 71.4957C189.716 71.7183 189.153 71.8295 188.442 71.8295C187.562 71.8295 186.771 71.6212 186.07 71.2045C185.374 70.7879 184.823 70.1818 184.415 69.3864C184.013 68.5909 183.812 67.625 183.812 66.4886C183.812 65.3712 184.008 64.3982 184.401 63.5696C184.794 62.7363 185.341 62.0923 186.042 61.6378C186.743 61.1785 187.552 60.9489 188.471 60.9489C189.181 60.9489 189.745 61.0672 190.161 61.304C190.583 61.536 190.905 61.8011 191.127 62.0994C191.354 62.393 191.53 62.6345 191.653 62.8239H191.823V61.0909H193.442V72.3125C193.442 73.25 193.229 74.0123 192.803 74.5994C192.382 75.1913 191.814 75.6245 191.099 75.8991C190.388 76.1785 189.598 76.3182 188.727 76.3182ZM188.67 70.3239C189.342 70.3239 189.91 70.17 190.374 69.8622C190.838 69.5545 191.191 69.1117 191.433 68.5341C191.674 67.9564 191.795 67.2652 191.795 66.4602C191.795 65.6742 191.676 64.9806 191.44 64.3793C191.203 63.7779 190.853 63.3068 190.388 62.9659C189.924 62.625 189.352 62.4545 188.67 62.4545C187.96 62.4545 187.368 62.6345 186.894 62.9943C186.425 63.3542 186.073 63.8371 185.836 64.4432C185.604 65.0492 185.488 65.7216 185.488 66.4602C185.488 67.2178 185.606 67.8878 185.843 68.4702C186.085 69.0478 186.44 69.5024 186.908 69.8338C187.382 70.1605 187.969 70.3239 188.67 70.3239ZM199.721 72.2557C199.03 72.2557 198.402 72.1255 197.839 71.8651C197.275 71.5999 196.828 71.2188 196.496 70.7216C196.165 70.2197 195.999 69.6136 195.999 68.9034C195.999 68.2784 196.122 67.7718 196.369 67.3835C196.615 66.9905 196.944 66.6828 197.356 66.4602C197.768 66.2377 198.222 66.072 198.719 65.9631C199.221 65.8494 199.726 65.7595 200.232 65.6932C200.895 65.608 201.433 65.544 201.844 65.5014C202.261 65.4541 202.564 65.3759 202.754 65.267C202.948 65.1581 203.045 64.9687 203.045 64.6989V64.642C203.045 63.9413 202.853 63.3968 202.469 63.0085C202.091 62.6203 201.515 62.4261 200.744 62.4261C199.943 62.4261 199.316 62.6013 198.862 62.9517C198.407 63.3021 198.087 63.6761 197.903 64.0739L196.312 63.5057C196.596 62.8428 196.975 62.3267 197.448 61.9574C197.926 61.5833 198.447 61.3229 199.011 61.1761C199.579 61.0246 200.138 60.9489 200.687 60.9489C201.037 60.9489 201.44 60.9915 201.894 61.0767C202.353 61.1572 202.796 61.3253 203.222 61.581C203.653 61.8366 204.011 62.2225 204.295 62.7386C204.579 63.2547 204.721 63.946 204.721 64.8125V72H203.045V70.5227H202.96C202.846 70.7595 202.656 71.0128 202.391 71.2827C202.126 71.5526 201.773 71.7822 201.333 71.9716C200.893 72.161 200.355 72.2557 199.721 72.2557ZM199.977 70.75C200.639 70.75 201.198 70.6198 201.653 70.3594C202.112 70.099 202.458 69.7628 202.69 69.3509C202.926 68.9389 203.045 68.5057 203.045 68.0511V66.517C202.974 66.6023 202.817 66.6804 202.576 66.7514C202.339 66.8177 202.065 66.8769 201.752 66.929C201.444 66.9763 201.144 67.0189 200.85 67.0568C200.561 67.09 200.327 67.1184 200.147 67.142C199.711 67.1989 199.304 67.2912 198.925 67.419C198.551 67.5421 198.248 67.7292 198.016 67.9801C197.789 68.2263 197.675 68.5625 197.675 68.9886C197.675 69.571 197.891 70.0114 198.322 70.3097C198.757 70.6032 199.309 70.75 199.977 70.75ZM207.78 72V61.0909H209.4V62.7955H209.542C209.769 62.2131 210.136 61.7609 210.642 61.4389C211.149 61.1122 211.757 60.9489 212.468 60.9489C213.187 60.9489 213.786 61.1122 214.265 61.4389C214.748 61.7609 215.124 62.2131 215.394 62.7955H215.507C215.787 62.232 216.206 61.7846 216.765 61.4531C217.323 61.117 217.993 60.9489 218.775 60.9489C219.75 60.9489 220.548 61.2543 221.168 61.8651C221.788 62.4711 222.098 63.4157 222.098 64.6989V72H220.422V64.6989C220.422 63.8939 220.202 63.3187 219.762 62.973C219.321 62.6274 218.803 62.4545 218.206 62.4545C217.439 62.4545 216.845 62.6866 216.424 63.1506C216.002 63.6098 215.792 64.1922 215.792 64.8977V72H214.087V64.5284C214.087 63.9081 213.886 63.4086 213.483 63.0298C213.081 62.6463 212.562 62.4545 211.928 62.4545C211.492 62.4545 211.085 62.5705 210.706 62.8026C210.332 63.0346 210.029 63.3565 209.797 63.7685C209.57 64.1757 209.456 64.6468 209.456 65.1818V72H207.78ZM229.737 72.2273C228.686 72.2273 227.779 71.9953 227.017 71.5312C226.259 71.0625 225.674 70.4091 225.262 69.571C224.855 68.7282 224.652 67.7481 224.652 66.6307C224.652 65.5133 224.855 64.5284 225.262 63.6761C225.674 62.8191 226.247 62.1515 226.981 61.6733C227.72 61.1903 228.582 60.9489 229.566 60.9489C230.135 60.9489 230.696 61.0436 231.25 61.233C231.804 61.4223 232.308 61.7301 232.762 62.1562C233.217 62.5777 233.579 63.1364 233.849 63.8324C234.119 64.5284 234.254 65.3854 234.254 66.4034V67.1136H225.845V65.6648H232.549C232.549 65.0492 232.426 64.5 232.18 64.017C231.939 63.5341 231.593 63.1529 231.143 62.8736C230.698 62.5942 230.172 62.4545 229.566 62.4545C228.899 62.4545 228.321 62.6203 227.833 62.9517C227.35 63.2784 226.979 63.7045 226.718 64.2301C226.458 64.7557 226.328 65.3191 226.328 65.9205V66.8864C226.328 67.7102 226.47 68.4086 226.754 68.9815C227.043 69.5497 227.443 69.983 227.954 70.2812C228.466 70.5748 229.06 70.7216 229.737 70.7216C230.177 70.7216 230.575 70.66 230.93 70.5369C231.29 70.4091 231.6 70.2197 231.86 69.9688C232.121 69.7131 232.322 69.3958 232.464 69.017L234.083 69.4716C233.913 70.0208 233.627 70.5038 233.224 70.9205C232.822 71.3324 232.324 71.6544 231.733 71.8864C231.141 72.1136 230.475 72.2273 229.737 72.2273ZM246.548 72.2273C245.639 72.2273 244.836 71.9976 244.14 71.5384C243.444 71.0743 242.9 70.4209 242.507 69.5781C242.114 68.7306 241.917 67.7292 241.917 66.5739C241.917 65.428 242.114 64.4337 242.507 63.5909C242.9 62.7481 243.447 62.0971 244.147 61.6378C244.848 61.1785 245.658 60.9489 246.576 60.9489C247.287 60.9489 247.848 61.0672 248.26 61.304C248.676 61.536 248.993 61.8011 249.211 62.0994C249.434 62.393 249.607 62.6345 249.73 62.8239H249.872V57.4545H251.548V72H249.929V70.3239H249.73C249.607 70.5227 249.431 70.7737 249.204 71.0767C248.977 71.375 248.653 71.6425 248.231 71.8793C247.81 72.1113 247.249 72.2273 246.548 72.2273ZM246.775 70.7216C247.448 70.7216 248.016 70.5464 248.48 70.196C248.944 69.8409 249.297 69.3509 249.538 68.7259C249.779 68.0961 249.9 67.3693 249.9 66.5455C249.9 65.7311 249.782 65.0185 249.545 64.4077C249.308 63.7921 248.958 63.3139 248.494 62.973C248.03 62.6274 247.457 62.4545 246.775 62.4545C246.065 62.4545 245.473 62.6368 245 63.0014C244.531 63.3613 244.178 63.8513 243.941 64.4716C243.709 65.0871 243.593 65.7784 243.593 66.5455C243.593 67.322 243.712 68.0275 243.949 68.6619C244.19 69.2917 244.545 69.7936 245.014 70.1676C245.487 70.5369 246.074 70.7216 246.775 70.7216ZM259.424 72.2273C258.373 72.2273 257.467 71.9953 256.704 71.5312C255.947 71.0625 255.362 70.4091 254.95 69.571C254.543 68.7282 254.339 67.7481 254.339 66.6307C254.339 65.5133 254.543 64.5284 254.95 63.6761C255.362 62.8191 255.935 62.1515 256.669 61.6733C257.407 61.1903 258.269 60.9489 259.254 60.9489C259.822 60.9489 260.383 61.0436 260.937 61.233C261.491 61.4223 261.995 61.7301 262.45 62.1562C262.904 62.5777 263.267 63.1364 263.537 63.8324C263.806 64.5284 263.941 65.3854 263.941 66.4034V67.1136H255.532V65.6648H262.237C262.237 65.0492 262.114 64.5 261.868 64.017C261.626 63.5341 261.28 63.1529 260.831 62.8736C260.386 62.5942 259.86 62.4545 259.254 62.4545C258.586 62.4545 258.009 62.6203 257.521 62.9517C257.038 63.2784 256.666 63.7045 256.406 64.2301C256.145 64.7557 256.015 65.3191 256.015 65.9205V66.8864C256.015 67.7102 256.157 68.4086 256.441 68.9815C256.73 69.5497 257.13 69.983 257.642 70.2812C258.153 70.5748 258.747 70.7216 259.424 70.7216C259.865 70.7216 260.262 70.66 260.618 70.5369C260.977 70.4091 261.288 70.2197 261.548 69.9688C261.808 69.7131 262.01 69.3958 262.152 69.017L263.771 69.4716C263.6 70.0208 263.314 70.5038 262.912 70.9205C262.509 71.3324 262.012 71.6544 261.42 71.8864C260.828 72.1136 260.163 72.2273 259.424 72.2273ZM275.08 61.0909L271.045 72H269.341L265.307 61.0909H267.125L270.136 69.7841H270.25L273.261 61.0909H275.08ZM290.644 63.5341L289.138 63.9602C289.044 63.7093 288.904 63.4654 288.719 63.2287C288.54 62.9872 288.293 62.7884 287.981 62.6321C287.668 62.4759 287.268 62.3977 286.781 62.3977C286.113 62.3977 285.557 62.5516 285.112 62.8594C284.671 63.1624 284.451 63.5483 284.451 64.017C284.451 64.4337 284.603 64.7628 284.906 65.0043C285.209 65.2457 285.682 65.447 286.326 65.608L287.945 66.0057C288.921 66.2424 289.647 66.6046 290.126 67.0923C290.604 67.5753 290.843 68.1979 290.843 68.9602C290.843 69.5852 290.663 70.1439 290.303 70.6364C289.948 71.1288 289.451 71.517 288.812 71.8011C288.173 72.0852 287.429 72.2273 286.582 72.2273C285.469 72.2273 284.548 71.9858 283.819 71.5028C283.09 71.0199 282.628 70.3144 282.434 69.3864L284.025 68.9886C284.176 69.5758 284.463 70.0161 284.884 70.3097C285.31 70.6032 285.867 70.75 286.553 70.75C287.335 70.75 287.955 70.5843 288.414 70.2528C288.878 69.9167 289.11 69.5142 289.11 69.0455C289.11 68.6667 288.978 68.3494 288.712 68.0938C288.447 67.8333 288.04 67.6392 287.491 67.5114L285.673 67.0852C284.674 66.8485 283.94 66.4815 283.471 65.9844C283.007 65.4825 282.775 64.8551 282.775 64.1023C282.775 63.4867 282.948 62.9422 283.293 62.4688C283.644 61.9953 284.12 61.6236 284.721 61.3537C285.327 61.0838 286.013 60.9489 286.781 60.9489C287.86 60.9489 288.708 61.1856 289.323 61.6591C289.943 62.1326 290.384 62.7576 290.644 63.5341ZM294.929 68.0227L294.9 65.9489H295.241L300.014 61.0909H302.088L297.002 66.233H296.86L294.929 68.0227ZM293.366 72V57.4545H295.042V72H293.366ZM300.298 72L296.037 66.6023L297.23 65.4375L302.429 72H300.298ZM304.245 72V61.0909H305.921V72H304.245ZM305.097 59.2727C304.771 59.2727 304.489 59.1615 304.252 58.9389C304.02 58.7164 303.904 58.4489 303.904 58.1364C303.904 57.8239 304.02 57.5563 304.252 57.3338C304.489 57.1113 304.771 57 305.097 57C305.424 57 305.703 57.1113 305.935 57.3338C306.172 57.5563 306.29 57.8239 306.29 58.1364C306.29 58.4489 306.172 58.7164 305.935 58.9389C305.703 59.1615 305.424 59.2727 305.097 59.2727ZM310.667 57.4545V72H308.991V57.4545H310.667ZM315.413 57.4545V72H313.737V57.4545H315.413ZM326.211 63.5341L324.705 63.9602C324.61 63.7093 324.471 63.4654 324.286 63.2287C324.106 62.9872 323.86 62.7884 323.547 62.6321C323.235 62.4759 322.835 62.3977 322.347 62.3977C321.679 62.3977 321.123 62.5516 320.678 62.8594C320.238 63.1624 320.017 63.5483 320.017 64.017C320.017 64.4337 320.169 64.7628 320.472 65.0043C320.775 65.2457 321.248 65.447 321.892 65.608L323.512 66.0057C324.487 66.2424 325.214 66.6046 325.692 67.0923C326.17 67.5753 326.409 68.1979 326.409 68.9602C326.409 69.5852 326.23 70.1439 325.87 70.6364C325.515 71.1288 325.017 71.517 324.378 71.8011C323.739 72.0852 322.996 72.2273 322.148 72.2273C321.035 72.2273 320.114 71.9858 319.385 71.5028C318.656 71.0199 318.194 70.3144 318 69.3864L319.591 68.9886C319.743 69.5758 320.029 70.0161 320.451 70.3097C320.877 70.6032 321.433 70.75 322.12 70.75C322.901 70.75 323.521 70.5843 323.98 70.2528C324.444 69.9167 324.676 69.5142 324.676 69.0455C324.676 68.6667 324.544 68.3494 324.279 68.0938C324.014 67.8333 323.606 67.6392 323.057 67.5114L321.239 67.0852C320.24 66.8485 319.506 66.4815 319.037 65.9844C318.573 65.4825 318.341 64.8551 318.341 64.1023C318.341 63.4867 318.514 62.9422 318.86 62.4688C319.21 61.9953 319.686 61.6236 320.287 61.3537C320.893 61.0838 321.58 60.9489 322.347 60.9489C323.426 60.9489 324.274 61.1856 324.89 61.6591C325.51 62.1326 325.95 62.7576 326.211 63.5341Z" fill="#636363"/>
<path d="M552 386C552 551.685 417.685 686 252 686C86.3146 686 -48 551.685 -48 386C-48 220.315 86.3146 86 252 86C417.685 86 552 220.315 552 386ZM30 386C30 508.607 129.393 608 252 608C374.607 608 474 508.607 474 386C474 263.393 374.607 164 252 164C129.393 164 30 263.393 30 386Z" fill="#E3F9EA"/>
<path d="M403.167 126.172L403.366 125.827L402.5 125.327C368.268 105.563 330.478 92.735 291.288 87.5756C252.099 82.4162 212.276 85.0263 174.095 95.2568L173.13 95.5156L173.388 96.4816L193.576 171.824L193.835 172.79L194.801 172.531C222.834 165.019 252.072 163.103 280.846 166.891C309.62 170.679 337.366 180.098 362.5 194.609L363.366 195.109L363.732 194.474C363.707 195.536 364.247 196.579 365.232 197.148C366.667 197.977 368.502 197.485 369.33 196.05L407.33 130.232C408.159 128.797 407.667 126.962 406.232 126.134C405.247 125.565 404.074 125.619 403.167 126.172Z" fill="#00D743" stroke="white" stroke-width="2"/>
</g>
<defs>
<clipPath id="clip0_29_232">
<rect width="504" height="249" rx="20" fill="white"/>
</clipPath>
</defs>
</svg>
